<svg width="20" height="20" viewBox="0 0 20 20" fill="none" xmlns="http://www.w3.org/2000/svg">
<path fill-rule="evenodd" clip-rule="evenodd" d="M17.4987 6.66669C17.4987 5.28598 16.3794 4.16669 14.9987 4.16669H8.33203C6.95132 4.16669 5.83203 5.28598 5.83203 6.66669V16.6667C5.83203 18.0474 6.95132 19.1667 8.33203 19.1667H14.9987C16.3794 19.1667 17.4987 18.0474 17.4987 16.6667V6.66669ZM15.832 6.66669C15.832 6.20645 15.4589 5.83335 14.9987 5.83335H8.33203C7.8718 5.83335 7.4987 6.20645 7.4987 6.66669V16.6667C7.4987 17.1269 7.8718 17.5 8.33203 17.5H14.9987C15.4589 17.5 15.832 17.1269 15.832 16.6667V6.66669Z" fill="#2B2B2B" fill-opacity="0.8"/>
<path d="M5 2.49998H13.3333C13.7936 2.49998 14.1667 2.12688 14.1667 1.66665C14.1667 1.20641 13.7936 0.833313 13.3333 0.833313H5C3.61929 0.833313 2.5 1.9526 2.5 3.33331V15C2.5 15.4602 2.8731 15.8333 3.33333 15.8333C3.79357 15.8333 4.16667 15.4602 4.16667 15V3.33331C4.16667 2.87308 4.53977 2.49998 5 2.49998Z" fill="#2B2B2B" fill-opacity="0.8"/>
</svg>
