<svg width="18" height="19" viewBox="0 0 18 19" fill="none" xmlns="http://www.w3.org/2000/svg">
<path fill-rule="evenodd" clip-rule="evenodd" d="M5.66797 0.833328C6.12821 0.833328 6.5013 1.20642 6.5013 1.66666V2.49999H11.5013V1.66666C11.5013 1.20642 11.8744 0.833328 12.3346 0.833328C12.7949 0.833328 13.168 1.20642 13.168 1.66666V2.49999H14.0013C15.8423 2.49999 17.3346 3.99238 17.3346 5.83333V15C17.3346 16.8409 15.8423 18.3333 14.0013 18.3333H4.0013C2.16035 18.3333 0.667969 16.8409 0.667969 15V5.83333C0.667969 3.99238 2.16035 2.49999 4.0013 2.49999H4.83464V1.66666C4.83464 1.20642 5.20773 0.833328 5.66797 0.833328ZM11.5013 4.16666C11.5013 4.6269 11.8744 4.99999 12.3346 4.99999C12.7949 4.99999 13.168 4.6269 13.168 4.16666H14.0013C14.9218 4.16666 15.668 4.91285 15.668 5.83333V6.24999H2.33464V5.83333C2.33464 4.91285 3.08083 4.16666 4.0013 4.16666H4.83464C4.83464 4.6269 5.20773 4.99999 5.66797 4.99999C6.12821 4.99999 6.5013 4.6269 6.5013 4.16666H11.5013ZM15.668 7.91666H2.33464V15C2.33464 15.9205 3.08083 16.6667 4.0013 16.6667H14.0013C14.9218 16.6667 15.668 15.9205 15.668 15V7.91666Z" fill="#2B2B2B" fill-opacity="0.8"/>
</svg>
