<svg width="3" height="12" viewBox="0 0 3 12" fill="none" xmlns="http://www.w3.org/2000/svg">
<path d="M1.33203 9.33333C1.59725 9.33333 1.8516 9.43869 2.03914 9.62623C2.22667 9.81376 2.33203 10.0681 2.33203 10.3333C2.33203 10.5985 2.22667 10.8529 2.03914 11.0404C1.8516 11.228 1.59725 11.3333 1.33203 11.3333C1.06681 11.3333 0.812461 11.228 0.624924 11.0404C0.437388 10.8529 0.332031 10.5985 0.332031 10.3333C0.332031 10.0681 0.437388 9.81376 0.624924 9.62623C0.812461 9.43869 1.06681 9.33333 1.33203 9.33333ZM1.33203 4.66667C1.59725 4.66667 1.8516 4.77202 2.03914 4.95956C2.22667 5.1471 2.33203 5.40145 2.33203 5.66667C2.33203 5.93188 2.22667 6.18624 2.03914 6.37377C1.8516 6.56131 1.59725 6.66667 1.33203 6.66667C1.06681 6.66667 0.812461 6.56131 0.624924 6.37377C0.437388 6.18624 0.332031 5.93188 0.332031 5.66667C0.332031 5.40145 0.437388 5.1471 0.624924 4.95956C0.812461 4.77202 1.06681 4.66667 1.33203 4.66667ZM1.33203 0C1.59725 0 1.8516 0.105357 2.03914 0.292893C2.22667 0.48043 2.33203 0.734783 2.33203 1C2.33203 1.26522 2.22667 1.51957 2.03914 1.70711C1.8516 1.89464 1.59725 2 1.33203 2C1.06681 2 0.812461 1.89464 0.624924 1.70711C0.437388 1.51957 0.332031 1.26522 0.332031 1C0.332031 0.734783 0.437388 0.48043 0.624924 0.292893C0.812461 0.105357 1.06681 0 1.33203 0Z" fill="#2B2B2B" fill-opacity="0.8"/>
</svg>
