<svg width="24" height="19" viewBox="0 0 24 19" fill="none" xmlns="http://www.w3.org/2000/svg">
<path d="M23.5 1.24463V5.74463L12 10.2446L0.5 5.74463V1.24463C0.5 0.94626 0.62116 0.660112 0.836827 0.449134C1.05249 0.238156 1.345 0.119629 1.65 0.119629H22.35C22.655 0.119629 22.9475 0.238156 23.1632 0.449134C23.3788 0.660112 23.5 0.94626 23.5 1.24463ZM0.5 8.16788V16.9946C0.5 17.293 0.62116 17.5791 0.836827 17.7901C1.05249 18.0011 1.345 18.1196 1.65 18.1196H22.35C22.655 18.1196 22.9475 18.0011 23.1632 17.7901C23.3788 17.5791 23.5 17.293 23.5 16.9946V8.16788L12 12.6679L0.5 8.16788Z" fill="#FF5A31"/>
</svg>
