<svg width="19" height="27" viewBox="0 0 19 27" fill="none" xmlns="http://www.w3.org/2000/svg">
<path d="M8.41152 25.6653C1.31689 14.9393 0 13.8385 0 9.8965C0 4.49686 4.19731 0.119629 9.375 0.119629C14.5527 0.119629 18.75 4.49686 18.75 9.8965C18.75 13.8385 17.4331 14.9393 10.3385 25.6653C9.8729 26.3666 8.87705 26.3666 8.41152 25.6653ZM9.375 13.9702C11.5324 13.9702 13.2812 12.1463 13.2812 9.8965C13.2812 7.64665 11.5324 5.8228 9.375 5.8228C7.21763 5.8228 5.46875 7.64665 5.46875 9.8965C5.46875 12.1463 7.21763 13.9702 9.375 13.9702Z" fill="#FF5A31"/>
</svg>
