<svg width="74" height="74" viewBox="0 0 74 74" fill="none" xmlns="http://www.w3.org/2000/svg">
<g clip-path="url(#clip0_375_567)">
<path d="M74 37C74 16.5987 57.4013 0 37 0C16.5987 0 0 16.5987 0 37C0 57.4013 16.5987 74 37 74C57.4013 74 74 57.4013 74 37ZM3.69698 37C3.69698 18.6358 18.6358 3.69698 37 3.69698C55.3642 3.69698 70.303 18.6358 70.303 37C70.303 55.3642 55.3642 70.303 37 70.303C18.6358 70.303 3.69698 55.3642 3.69698 37Z" fill="#FF5A31"/>
<path d="M38.3128 54.3834L48.7096 43.9866C49.4339 43.2623 49.4339 42.1003 48.7096 41.376C47.9853 40.6517 46.8234 40.6517 46.0991 41.376L38.856 48.6191V20.9295C38.856 19.9034 38.0261 19.0734 37 19.0734C35.9739 19.0734 35.1439 19.9034 35.1439 20.9295V48.604L27.9009 41.3609C27.1766 40.6366 26.0147 40.6366 25.2904 41.3609C24.5661 42.0853 24.5661 43.2472 25.2904 43.9715L35.6872 54.3683C36.0493 54.7304 36.5171 54.9115 37 54.9115C37.4829 54.9115 37.9506 54.7455 38.3128 54.3834Z" fill="#FF5A31"/>
</g>
<defs>
<clipPath id="clip0_375_567">
<rect width="74" height="74" fill="white"/>
</clipPath>
</defs>
</svg>
